# xmcd
#
# Track frame offsets: 
#        150
#        12985
#        23427
#        34489
#        44023
#        55399
#        68538
#        81291
#        93028
#        103510
#        116826
#        126057
#        138237
#        149444
#        163928
#        177636
#        192956
#        210496
#        227620
#        236052
#        245205
#        256632
#
# Disc length: 3646 seconds
#
# Revision: 3
# Processed by: cddbd v1.5.2PL0 Copyright (c) Steve Scherf et al.
# Submitted via: ExactAudioCopy v1.1
#
DISCID=370e3c16
DTITLE=Slim Harpo - The Excello Singles Anthology - Disc 2
DYEAR=2003
DGENRE=Blues
TTITLE0=Baby Scratch My Back (mono)
TTITLE1=I'm Gonna Miss You (Like The Devil) (mono)
TTITLE2=Shake Your Hips (mono)
TTITLE3=Midnight Blues (mono)
TTITLE4=I'm Your Bread Maker, Baby (mono)
TTITLE5=Loving You (The Way I Do) (mono)
TTITLE6=Tip On In (Part 1) (stereo)
TTITLE7=Tip On In (Part 2) (stereo)
TTITLE8=I'm Gonna Keep What I've Got (stereo)
TTITLE9=I've Got To Be With You Tonight (stereo)
TTITLE10=Te-Ni-Nee-Ni-Nu (stereo)
TTITLE11=Mailbox Blues (stereo)
TTITLE12=Mohair Sam (mono)
TTITLE13=I Just Can't Leave You (mono)
TTITLE14=That's Why I Love You (mono)
TTITLE15=Just For You (stereo)
TTITLE16=Folsom Prison Blues (mono)
TTITLE17=Mutual Friend (mono)
TTITLE18=I've Got My Finger On Your Trigger (mono)
TTITLE19=The Price Is Too High (mono)
TTITLE20=Rainin' in My Heart (1971 overdubbed version) (stereo)
TTITLE21=Jody Man (mono)
EXTD=JEK  Hip-O B000583-02-CDO2 c. 2003
EXTT0=
EXTT1=
EXTT2=
EXTT3=
EXTT4=
EXTT5=
EXTT6=
EXTT7=
EXTT8=
EXTT9=
EXTT10=
EXTT11=
EXTT12=
EXTT13=
EXTT14=
EXTT15=
EXTT16=
EXTT17=
EXTT18=
EXTT19=
EXTT20=
EXTT21=
PLAYORDER=
